<svg xmlns="http://www.w3.org/2000/svg" xmlns:xlink="http://www.w3.org/1999/xlink" contentStyleType="text/css" data-diagram-type="DESCRIPTION" height="586px" preserveAspectRatio="none" style="width:813px;height:586px;background:#FFFFFF;" version="1.1" viewBox="0 0 813 586" width="813px" zoomAndPan="magnify"><?plantuml 1.2026.5?><defs/><g><g class="title" data-source-line="1"><text fill="#000000" font-family="sans-serif" font-size="14" font-weight="700" lengthAdjust="spacing" textLength="365.0869" x="220.7465" y="23.5352">BackendTFM - Backend Ingestion Service Internals</text></g><!--cluster Python Backend Container--><g class="cluster" data-qualified-name="Python Backend Container" data-source-line="8" id="ent0001"><rect fill="none" height="393.93" rx="2.5" ry="2.5" style="stroke:#181818;stroke-width:1;" width="668" x="131.58" y="44.4883"/><text fill="#000000" font-family="sans-serif" font-size="14" font-weight="700" lengthAdjust="spacing" textLength="189.3418" x="370.9091" y="60.0234">Python Backend Container</text></g><!--entity settings--><g class="entity" data-qualified-name="Python Backend Container.settings" data-source-line="9" id="ent0002"><rect fill="#F1F1F1" height="52.9766" rx="2.5" ry="2.5" style="stroke:#181818;stroke-width:0.5;" width="92.167" x="474.5" y="79.4883"/><text fill="#000000" font-family="sans-serif" font-size="14" lengthAdjust="spacing" textLength="54.4141" x="493.3765" y="103.0234">Settings</text><text fill="#000000" font-family="sans-serif" font-size="14" lengthAdjust="spacing" textLength="72.167" x="484.5" y="119.5117">app.config</text></g><!--entity mqtt_client--><g class="entity" data-qualified-name="Python Backend Container.mqtt_client" data-source-line="10" id="ent0003"><rect fill="#F1F1F1" height="52.9766" rx="2.5" ry="2.5" style="stroke:#181818;stroke-width:0.5;" width="104.5742" x="315.29" y="224.4683"/><text fill="#000000" font-family="sans-serif" font-size="14" lengthAdjust="spacing" textLength="84.5742" x="325.29" y="248.0034">MQTT Client</text><text fill="#000000" font-family="sans-serif" font-size="14" lengthAdjust="spacing" textLength="63.3213" x="335.9165" y="264.4917">app.main</text></g><!--entity validator--><g class="entity" data-qualified-name="Python Backend Container.validator" data-source-line="11" id="ent0004"><rect fill="#F1F1F1" height="52.9766" rx="2.5" ry="2.5" style="stroke:#181818;stroke-width:0.5;" width="141.5703" x="206.8" y="369.4483"/><text fill="#000000" font-family="sans-serif" font-size="14" lengthAdjust="spacing" textLength="121.5703" x="216.8" y="392.9834">Parser &amp; Validator</text><text fill="#000000" font-family="sans-serif" font-size="14" lengthAdjust="spacing" textLength="95.9697" x="229.6003" y="409.4717">app.validation</text></g><!--entity writer--><g class="entity" data-qualified-name="Python Backend Container.writer" data-source-line="12" id="ent0005"><rect fill="#F1F1F1" height="52.9766" rx="2.5" ry="2.5" style="stroke:#181818;stroke-width:0.5;" width="135.3154" x="578.92" y="369.4483"/><text fill="#000000" font-family="sans-serif" font-size="14" lengthAdjust="spacing" textLength="84.1367" x="604.5094" y="392.9834">Influx Writer</text><text fill="#000000" font-family="sans-serif" font-size="14" lengthAdjust="spacing" textLength="115.3154" x="588.92" y="409.4717">app.influx_writer</text></g><!--entity health--><g class="entity" data-qualified-name="Python Backend Container.health" data-source-line="13" id="ent0006"><rect fill="#F1F1F1" height="52.9766" rx="2.5" ry="2.5" style="stroke:#181818;stroke-width:0.5;" width="110.0635" x="673.55" y="224.4683"/><text fill="#000000" font-family="sans-serif" font-size="14" lengthAdjust="spacing" textLength="90.0635" x="683.55" y="248.0034">Health Server</text><text fill="#000000" font-family="sans-serif" font-size="14" lengthAdjust="spacing" textLength="71.9756" x="692.5939" y="264.4917">app.health</text></g><!--entity mqtt--><g class="entity" data-qualified-name="mqtt" data-source-line="16" id="ent0007"><path d="M11,84.4883 L110.1611,84.4883 C115.1611,84.4883 115.1611,105.9766 115.1611,105.9766 C115.1611,105.9766 115.1611,127.4648 110.1611,127.4648 L11,127.4648 C6,127.4648 6,105.9766 6,105.9766 C6,105.9766 6,84.4883 11,84.4883" fill="#F1F1F1" style="stroke:#181818;stroke-width:0.5;"/><path d="M110.1611,84.4883 C105.1611,84.4883 105.1611,105.9766 105.1611,105.9766 C105.1611,127.4648 110.1611,127.4648 110.1611,127.4648" fill="none" style="stroke:#181818;stroke-width:0.5;"/><text fill="#000000" font-family="sans-serif" font-size="14" lengthAdjust="spacing" textLength="68.4141" x="21.3735" y="103.0234">Mosquitto</text><text fill="#000000" font-family="sans-serif" font-size="14" lengthAdjust="spacing" textLength="89.1611" x="11" y="119.5117">MQTT Broker</text></g><!--entity influx--><g class="entity" data-qualified-name="influx" data-source-line="17" id="ent0008"><path d="M607.72,526.4183 C607.72,516.4183 646.5847,516.4183 646.5847,516.4183 C646.5847,516.4183 685.4495,516.4183 685.4495,526.4183 L685.4495,551.9066 C685.4495,561.9066 646.5847,561.9066 646.5847,561.9066 C646.5847,561.9066 607.72,561.9066 607.72,551.9066 L607.72,526.4183" fill="#F1F1F1" style="stroke:#181818;stroke-width:0.5;"/><path d="M607.72,526.4183 C607.72,536.4183 646.5847,536.4183 646.5847,536.4183 C646.5847,536.4183 685.4495,536.4183 685.4495,526.4183" fill="none" style="stroke:#181818;stroke-width:0.5;"/><text fill="#000000" font-family="sans-serif" font-size="14" lengthAdjust="spacing" textLength="57.7295" x="617.72" y="553.9534">InfluxDB</text></g><!--link settings to mqtt_client--><g class="link" data-entity-1="ent0002" data-entity-2="ent0003" data-link-type="dependency" data-source-line="19" id="lnk9"><path d="M474.42,131.6583 C460.21,140.3783 445.04,150.9283 432.58,162.4683 C412.87,180.7283 397.7421,201.4478 385.7521,220.0178" fill="none" id="settings-to-mqtt_client" style="stroke:#181818;stroke-width:1;"/><polygon fill="#181818" points="383.04,224.2183,391.2822,218.827,385.7521,220.0178,384.5614,214.4876,383.04,224.2183" style="stroke:#181818;stroke-width:1;stroke-linejoin:miter;stroke-miterlimit:10;"/><text fill="#000000" font-family="sans-serif" font-size="13" lengthAdjust="spacing" textLength="77.416" x="433.58" y="176.0366">broker host,</text><text fill="#000000" font-family="sans-serif" font-size="13" lengthAdjust="spacing" textLength="66.022" x="439.277" y="191.3472">port, topic</text></g><!--link settings to writer--><g class="link" data-entity-1="ent0002" data-entity-2="ent0005" data-link-type="dependency" data-source-line="20" id="lnk10"><path d="M519.54,132.6383 C518.41,174.9783 518.79,256.8483 537.58,277.4483 C584.87,329.2783 647.93,253.3183 692.58,307.4483 C707.98,326.1083 695.8604,347.0826 678.8104,365.4626" fill="none" id="settings-to-writer" style="stroke:#181818;stroke-width:1;"/><polygon fill="#181818" points="675.41,369.1283,684.4633,365.2504,678.8104,365.4626,678.5982,359.8097,675.41,369.1283" style="stroke:#181818;stroke-width:1;stroke-linejoin:miter;stroke-miterlimit:10;"/><text fill="#000000" font-family="sans-serif" font-size="13" lengthAdjust="spacing" textLength="85.9917" x="553.7001" y="248.5266">InfluxDB URL,</text><text fill="#000000" font-family="sans-serif" font-size="13" lengthAdjust="spacing" textLength="116.2319" x="538.58" y="263.8372">token, org, bucket</text></g><!--link settings to health--><g class="link" data-entity-1="ent0002" data-entity-2="ent0006" data-link-type="dependency" data-source-line="21" id="lnk11"><path d="M558.25,132.8683 C595.83,158.6983 649.1198,195.3356 686.7198,221.1856" fill="none" id="settings-to-health" style="stroke:#181818;stroke-width:1;"/><polygon fill="#181818" points="690.84,224.0183,685.6897,215.6234,686.7198,221.1856,681.1575,222.2157,690.84,224.0183" style="stroke:#181818;stroke-width:1;stroke-linejoin:miter;stroke-miterlimit:10;"/><text fill="#000000" font-family="sans-serif" font-size="13" lengthAdjust="spacing" textLength="63.6416" x="644.21" y="183.5366">HTTP port</text></g><!--link mqtt to mqtt_client--><g class="link" data-entity-1="ent0007" data-entity-2="ent0003" data-link-type="dependency" data-source-line="23" id="lnk12"><path d="M105.55,127.9183 C161.26,153.8683 251.4874,195.8875 310.4974,223.3675" fill="none" id="mqtt-to-mqtt_client" style="stroke:#181818;stroke-width:1;"/><polygon fill="#181818" points="315.03,225.4783,308.5599,218.0528,310.4974,223.3675,305.1827,225.305,315.03,225.4783" style="stroke:#181818;stroke-width:1;stroke-linejoin:miter;stroke-miterlimit:10;"/><text fill="#000000" font-family="sans-serif" font-size="13" lengthAdjust="spacing" textLength="110.7476" x="242.58" y="183.5366">raw JSON payload</text></g><!--link mqtt_client to validator--><g class="link" data-entity-1="ent0003" data-entity-2="ent0004" data-link-type="dependency" data-source-line="24" id="lnk13"><path d="M351.19,277.9183 C345.32,287.2283 338.65,297.8083 332.58,307.4483 C319.48,328.2383 307.3105,347.6048 296.3505,365.0448" fill="none" id="mqtt_client-to-validator" style="stroke:#181818;stroke-width:1;"/><polygon fill="#181818" points="293.69,369.2783,301.8656,363.7865,296.3505,365.0448,295.0921,359.5297,293.69,369.2783" style="stroke:#181818;stroke-width:1;stroke-linejoin:miter;stroke-miterlimit:10;"/><text fill="#000000" font-family="sans-serif" font-size="13" lengthAdjust="spacing" textLength="108.9639" x="333.58" y="328.5166">parse_telemetry()</text></g><!--link validator to mqtt_client--><g class="link" data-entity-1="ent0004" data-entity-2="ent0003" data-link-type="dependency" data-source-line="25" id="lnk14"><path d="M224.59,369.0083 C198.16,352.4983 175.02,330.0283 191.58,307.4483 C219.62,269.2083 269.0815,257.1015 310.0315,253.2915" fill="none" id="validator-to-mqtt_client" style="stroke:#181818;stroke-width:1;"/><polygon fill="#181818" points="315.01,252.8283,305.6781,249.6792,310.0315,253.2915,306.4193,257.6448,315.01,252.8283" style="stroke:#181818;stroke-width:1;stroke-linejoin:miter;stroke-miterlimit:10;"/><text fill="#000000" font-family="sans-serif" font-size="13" lengthAdjust="spacing" textLength="62.8164" x="216.9899" y="321.0166">Telemetry</text><text fill="#000000" font-family="sans-serif" font-size="13" lengthAdjust="spacing" textLength="111.6362" x="192.58" y="336.3272">or ValidationError</text></g><!--link mqtt_client to writer--><g class="link" data-entity-1="ent0003" data-entity-2="ent0005" data-link-type="dependency" data-source-line="26" id="lnk15"><path d="M419.95,264.1983 C467.7,275.9083 534.24,293.7483 557.58,307.4483 C565.06,311.8283 594.4569,341.3309 618.0769,365.5209" fill="none" id="mqtt_client-to-writer" style="stroke:#181818;stroke-width:1;"/><polygon fill="#181818" points="621.57,369.0983,618.1443,359.8644,618.0769,365.5209,612.4204,365.4534,621.57,369.0983" style="stroke:#181818;stroke-width:1;stroke-linejoin:miter;stroke-miterlimit:10;"/><text fill="#000000" font-family="sans-serif" font-size="13" lengthAdjust="spacing" textLength="93.1772" x="592.61" y="328.5166">valid telemetry</text></g><!--link mqtt_client to writer--><g class="link" data-entity-1="ent0003" data-entity-2="ent0005" data-link-type="dependency" data-source-line="27" id="lnk16"><path d="M407.15,277.7583 C420.07,286.6983 434.26,297.0883 446.58,307.4483 C461.98,320.3783 461.46,328.8883 478.58,339.4483 C509.05,358.2183 541.7602,370.0581 573.6102,378.8481" fill="none" id="mqtt_client-to-writer-1" style="stroke:#181818;stroke-width:1;"/><polygon fill="#181818" points="578.43,380.1783,570.8185,373.9281,573.6102,378.8481,568.6902,381.6398,578.43,380.1783" style="stroke:#181818;stroke-width:1;stroke-linejoin:miter;stroke-miterlimit:10;"/><text fill="#000000" font-family="sans-serif" font-size="13" lengthAdjust="spacing" textLength="69.4434" x="479.58" y="328.5166">error event</text></g><!--link writer to influx--><g class="link" data-entity-1="ent0005" data-entity-2="ent0008" data-link-type="dependency" data-source-line="28" id="lnk17"><path d="M646.58,422.8383 C646.58,449.5883 646.58,485.8983 646.58,511.1383" fill="none" id="writer-to-influx" style="stroke:#181818;stroke-width:1;"/><polygon fill="#181818" points="646.58,516.1383,650.58,507.1383,646.58,511.1383,642.58,507.1383,646.58,516.1383" style="stroke:#181818;stroke-width:1;stroke-linejoin:miter;stroke-miterlimit:10;"/><text fill="#000000" font-family="sans-serif" font-size="13" lengthAdjust="spacing" textLength="97.4365" x="649.0527" y="467.9866">node_telemetry</text><text fill="#000000" font-family="sans-serif" font-size="13" lengthAdjust="spacing" textLength="100.3818" x="647.58" y="483.2972">backend_events</text></g><!--link health to writer--><g class="link" data-entity-1="ent0006" data-entity-2="ent0005" data-link-type="dependency" data-source-line="29" id="lnk18"><path d="M723.22,277.7383 C718.71,295.8783 711.12,320.2483 699.58,339.4483 C693.2,350.0583 687.9585,356.7161 679.4185,365.4361" fill="none" id="health-to-writer" style="stroke:#181818;stroke-width:1;"/><polygon fill="#181818" points="675.92,369.0083,685.075,365.3771,679.4185,365.4361,679.3595,359.7795,675.92,369.0083" style="stroke:#181818;stroke-width:1;stroke-linejoin:miter;stroke-miterlimit:10;"/><text fill="#000000" font-family="sans-serif" font-size="13" lengthAdjust="spacing" textLength="43.1704" x="714.46" y="328.5166">ready()</text></g><?plantuml-src TLBDZjCm4BxxAKOz891Q7e034br0kuX2eM6vLAhSP9fQTSQfFMctGhmx4plf9ilkpPxlnz_Cc0rRXBdE3qX5zda1i_u2TrHYOEC8LkXF9aUfC7hIDYWL3ePgxNK5kQjgHqYyuejOUSnPKsbnG0bxNRYpeH9s8XuY1UvqOpd31_vWJKcL-42ExJi3LYs9T8bF7r1T7IRB2-ybPv_ynX5hG-Wdy4V1OqAOh91PSeGrwRf-cplQcN82Ea3eW35zyIFBuCOQkIH59RQHNnsPDtb4nfAbzW4zl89xRKsXsVcaFAMhZ3FgJpqwLj_HpZOFyDiRcK0IcbZQd6CfQjDnBBn5RNaVDzKBzx4K5Uce_YfrRB2HWIrSE3Q6sQqfzZZtxj2vjvqfYQQtEc2VwECyOYcBRB-R5incxuUZW7UmZKwmTu6dQwgTvocmgqq-5gKUXD_xmw-VNqN0egOfE5zEOTl8EdciIvs8xZRBbj3QAzK6U2Q9rsVuilh-JRxFnJfTg27Sqgyx47BThct3QB52zfVNRzGZ-hzrrlFM9FZzTRMVl9UDFdtdsckqXEiZBnEnzG4yjR-hAxPu6h_Wv8f1s3LjqyVVH4LGtP16bXvrqRRr3m00?></g></svg>