<svg xmlns="http://www.w3.org/2000/svg" xmlns:xlink="http://www.w3.org/1999/xlink" contentStyleType="text/css" data-diagram-type="DESCRIPTION" height="669px" preserveAspectRatio="none" style="width:570px;height:669px;background:#FFFFFF;" version="1.1" viewBox="0 0 570 669" width="570px" zoomAndPan="magnify"><?plantuml 1.2026.5?><defs/><g><g class="title" data-source-line="1"><text fill="#000000" font-family="sans-serif" font-size="14" font-weight="700" lengthAdjust="spacing" textLength="346.7598" x="108.4937" y="23.5352">BackendTFM - High-Level Backend Architecture</text></g><!--cluster Docker Compose--><g class="cluster" data-qualified-name="Docker Compose" data-source-line="11" id="ent0003"><polygon fill="none" points="16,208.9583,26,198.9583,390,198.9583,390,634.8683,380,644.8683,16,644.8683,16,208.9583" style="stroke:#181818;stroke-width:1;stroke-linejoin:miter;stroke-miterlimit:10;"/><line style="stroke:#181818;stroke-width:1;" x1="380" x2="390" y1="208.9583" y2="198.9583"/><line style="stroke:#181818;stroke-width:1;" x1="16" x2="380" y1="208.9583" y2="208.9583"/><line style="stroke:#181818;stroke-width:1;" x1="380" x2="380" y1="208.9583" y2="644.8683"/><text fill="#000000" font-family="sans-serif" font-size="14" font-weight="700" lengthAdjust="spacing" textLength="122.3633" x="137.8184" y="225.4934">Docker Compose</text></g><!--entity mqtt--><g class="entity" data-qualified-name="Docker Compose.mqtt" data-source-line="12" id="ent0004"><rect fill="#F1F1F1" height="69.4648" rx="2.5" ry="2.5" style="stroke:#181818;stroke-width:0.5;" width="109.1611" x="44.42" y="238.9583"/><text fill="#000000" font-family="sans-serif" font-size="14" lengthAdjust="spacing" textLength="68.4141" x="64.7935" y="262.4934">Mosquitto</text><text fill="#000000" font-family="sans-serif" font-size="14" lengthAdjust="spacing" textLength="89.1611" x="54.42" y="278.9817">MQTT Broker</text><text fill="#000000" font-family="sans-serif" font-size="14" lengthAdjust="spacing" textLength="39.8398" x="79.0806" y="295.47">:1883</text></g><!--entity backend--><g class="entity" data-qualified-name="Docker Compose.backend" data-source-line="13" id="ent0005"><rect fill="#F1F1F1" height="69.4648" rx="2.5" ry="2.5" style="stroke:#181818;stroke-width:0.5;" width="134.7207" x="31.64" y="388.9383"/><text fill="#000000" font-family="sans-serif" font-size="14" lengthAdjust="spacing" textLength="107.1328" x="45.4339" y="412.4734">Python Backend</text><text fill="#000000" font-family="sans-serif" font-size="14" lengthAdjust="spacing" textLength="114.7207" x="41.64" y="428.9617">Ingestion Service</text><text fill="#000000" font-family="sans-serif" font-size="14" lengthAdjust="spacing" textLength="39.8398" x="79.0804" y="445.45">:8000</text></g><!--entity influx--><g class="entity" data-qualified-name="Docker Compose.influx" data-source-line="14" id="ent0006"><path d="M111.14,560.4083 C111.14,550.4083 189.9984,550.4083 189.9984,550.4083 C189.9984,550.4083 268.8568,550.4083 268.8568,560.4083 L268.8568,618.8731 C268.8568,628.8731 189.9984,628.8731 189.9984,628.8731 C189.9984,628.8731 111.14,628.8731 111.14,618.8731 L111.14,560.4083" fill="#F1F1F1" style="stroke:#181818;stroke-width:0.5;"/><path d="M111.14,560.4083 C111.14,570.4083 189.9984,570.4083 189.9984,570.4083 C189.9984,570.4083 268.8568,570.4083 268.8568,560.4083" fill="none" style="stroke:#181818;stroke-width:0.5;"/><text fill="#000000" font-family="sans-serif" font-size="14" lengthAdjust="spacing" textLength="57.7295" x="161.1337" y="587.9434">InfluxDB</text><text fill="#000000" font-family="sans-serif" font-size="14" lengthAdjust="spacing" textLength="137.7168" x="121.14" y="604.4317">Time-Series Storage</text><text fill="#000000" font-family="sans-serif" font-size="14" lengthAdjust="spacing" textLength="39.8398" x="170.0785" y="620.92">:8086</text></g><!--entity grafana--><g class="entity" data-qualified-name="Docker Compose.grafana" data-source-line="15" id="ent0007"><rect fill="#F1F1F1" height="69.4648" rx="2.5" ry="2.5" style="stroke:#181818;stroke-width:0.5;" width="172.5781" x="201.71" y="388.9383"/><text fill="#000000" font-family="sans-serif" font-size="14" lengthAdjust="spacing" textLength="52.876" x="261.5611" y="412.4734">Grafana</text><text fill="#000000" font-family="sans-serif" font-size="14" lengthAdjust="spacing" textLength="152.5781" x="211.71" y="428.9617">Monitoring Dashboard</text><text fill="#000000" font-family="sans-serif" font-size="14" lengthAdjust="spacing" textLength="39.8398" x="268.0791" y="445.45">:3000</text></g><!--entity edge--><g class="entity" data-qualified-name="edge" data-source-line="8" id="ent0001"><ellipse cx="99.0031" cy="51.4883" fill="#F1F1F1" rx="8" ry="8" style="stroke:#181818;stroke-width:0.5;"/><path d="M99.0031,59.4883 L99.0031,86.4883 M86.0031,67.4883 L112.0031,67.4883 M99.0031,86.4883 L86.0031,101.4883 M99.0031,86.4883 L112.0031,101.4883" fill="none" style="stroke:#181818;stroke-width:0.5;"/><text fill="#000000" font-family="sans-serif" font-size="14" lengthAdjust="spacing" textLength="72.9121" x="62.5471" y="116.5234">Edge Node</text><text fill="#000000" font-family="sans-serif" font-size="14" lengthAdjust="spacing" textLength="83.4463" x="57.28" y="133.0117">or Simulator</text></g><!--entity operator--><g class="entity" data-qualified-name="operator" data-source-line="9" id="ent0002"><ellipse cx="478.9956" cy="243.9483" fill="#F1F1F1" rx="8" ry="8" style="stroke:#181818;stroke-width:0.5;"/><path d="M478.9956,251.9483 L478.9956,278.9483 M465.9956,259.9483 L491.9956,259.9483 M478.9956,278.9483 L465.9956,293.9483 M478.9956,278.9483 L491.9956,293.9483" fill="none" style="stroke:#181818;stroke-width:0.5;"/><text fill="#000000" font-family="sans-serif" font-size="14" lengthAdjust="spacing" textLength="145.0313" x="406.48" y="308.9834">Developer / Operator</text></g><!--link edge to mqtt--><g class="link" data-entity-1="ent0001" data-entity-2="ent0004" data-link-type="dependency" data-source-line="18" id="lnk8"><path d="M99,136.4583 C99,168.1883 99,204.6983 99,233.5183" fill="none" id="edge-to-mqtt" style="stroke:#181818;stroke-width:1;"/><polygon fill="#181818" points="99,238.5183,103,229.5183,99,233.5183,95,229.5183,99,238.5183" style="stroke:#181818;stroke-width:1;stroke-linejoin:miter;stroke-miterlimit:10;"/><text fill="#000000" font-family="sans-serif" font-size="13" lengthAdjust="spacing" textLength="124.084" x="100" y="179.5266">publishes telemetry</text></g><!--link mqtt to backend--><g class="link" data-entity-1="ent0004" data-entity-2="ent0005" data-link-type="dependency" data-source-line="19" id="lnk9"><path d="M99,308.6483 C99,332.6183 99,359.6283 99,383.6283" fill="none" id="mqtt-to-backend" style="stroke:#181818;stroke-width:1;"/><polygon fill="#181818" points="99,388.6283,103,379.6283,99,383.6283,95,379.6283,99,388.6283" style="stroke:#181818;stroke-width:1;stroke-linejoin:miter;stroke-miterlimit:10;"/><text fill="#000000" font-family="sans-serif" font-size="13" lengthAdjust="spacing" textLength="103.6382" x="100" y="355.5066">MQTT messages</text></g><!--link backend to influx--><g class="link" data-entity-1="ent0005" data-entity-2="ent0006" data-link-type="dependency" data-source-line="20" id="lnk10"><path d="M93.21,458.7683 C91.6,477.8783 92.41,501.5883 102,520.4083 C107.71,531.5983 112.477,538.1596 121.957,546.7096" fill="none" id="backend-to-influx" style="stroke:#181818;stroke-width:1;"/><polygon fill="#181818" points="125.67,550.0583,121.6656,541.0602,121.957,546.7096,116.3077,547.001,125.67,550.0583" style="stroke:#181818;stroke-width:1;stroke-linejoin:miter;stroke-miterlimit:10;"/><text fill="#000000" font-family="sans-serif" font-size="13" lengthAdjust="spacing" textLength="102.2354" x="114.6511" y="501.9766">stores telemetry</text><text fill="#000000" font-family="sans-serif" font-size="13" lengthAdjust="spacing" textLength="125.5376" x="103" y="517.2872">and backend events</text></g><!--link grafana to influx--><g class="link" data-entity-1="ent0007" data-entity-2="ent0006" data-link-type="dependency" data-source-line="21" id="lnk11"><path d="M268.99,458.5383 C258.55,476.9483 245.26,500.0383 233,520.4083 C227.15,530.1183 223.3626,536.2862 217.2726,545.9662" fill="none" id="grafana-to-influx" style="stroke:#181818;stroke-width:1;"/><polygon fill="#181818" points="214.61,550.1983,222.7883,544.7105,217.2726,545.9662,216.0169,540.4504,214.61,550.1983" style="stroke:#181818;stroke-width:1;stroke-linejoin:miter;stroke-miterlimit:10;"/><text fill="#000000" font-family="sans-serif" font-size="13" lengthAdjust="spacing" textLength="97.1572" x="252.51" y="509.4766">queries metrics</text></g><!--link operator to backend--><g class="link" data-entity-1="ent0002" data-entity-2="ent0005" data-link-type="dependency" data-source-line="22" id="lnk12"><path d="M406.02,306.3383 C400.63,308.3383 395.26,310.2283 390,311.9383 C335.27,329.7783 318.19,322.4983 264,341.9383 C228.73,354.5883 195.516,370.3313 165.096,386.1513" fill="none" id="operator-to-backend" style="stroke:#181818;stroke-width:1;"/><polygon fill="#181818" points="160.66,388.4583,170.4903,387.8546,165.096,386.1513,166.7992,380.757,160.66,388.4583" style="stroke:#181818;stroke-width:1;stroke-linejoin:miter;stroke-miterlimit:10;"/><text fill="#000000" font-family="sans-serif" font-size="13" lengthAdjust="spacing" textLength="153.207" x="265" y="355.5066">health/readiness checks</text></g><!--link operator to grafana--><g class="link" data-entity-1="ent0002" data-entity-2="ent0007" data-link-type="dependency" data-source-line="23" id="lnk13"><path d="M462.07,312.1483 C453.39,328.1583 441.55,346.0783 427,358.9383 C411.78,372.3883 397.7505,381.3098 379.2405,390.2698" fill="none" id="operator-to-grafana" style="stroke:#181818;stroke-width:1;"/><polygon fill="#181818" points="374.74,392.4483,384.5836,392.1273,379.2405,390.2698,381.098,384.9266,374.74,392.4483" style="stroke:#181818;stroke-width:1;stroke-linejoin:miter;stroke-miterlimit:10;"/><text fill="#000000" font-family="sans-serif" font-size="13" lengthAdjust="spacing" textLength="112.0171" x="442.73" y="355.5066">views dashboards</text></g><?plantuml-src NP5DZzf038Rlyoiixj5IhRH2ELHQIhjTgVH3v9YBcPXanCGJPXnsKTN_NYUG5hWa6ljvxTUsEF44IxHxughuieOClhgwoRxHaVmKX-Te6oTafOzaJDexxZ1Y2pQqNM1YsSX9oqGba6jFLqXgi0flZclOeK_NcOfss7ifw5sUlQkvrJfWzKFnYkhK0jPqty2WbH1Xzhcg2Rw7YahMvyQrlKTDp00JaEOcRZNC4pgAy00_zFSF2fU7CQnL50mwSeHFmsI9Pl3RmFynOROEwT0xaL3o-bTHm386nKlEFomMZsF1zY1og_bvaYRmjCoINxcc94v36uf7PzLxlfZFvwDyUwQqGeM2MqpgwPLtldzVBKikN4kPgXmbsAXhtSmeNZoDOZU2jzrV8kwGKVq6TYePJh72r6m3HZMJFqwTwpDe_XWpR0woxECu3EJGzLllKgDDXJor9F5anjJ0N1mhDcwafPJKLZ9JV63EnXH9wk2wJCceo8JgaLYIkJYvLHxwyzY3pDbafiFTUMW8lJGFaR1oh5R0DcJtT_ZK88UZexUagxxi8vc_?></g></svg>