<svg xmlns="http://www.w3.org/2000/svg" xmlns:xlink="http://www.w3.org/1999/xlink" contentStyleType="text/css" data-diagram-type="ACTIVITY" height="780px" preserveAspectRatio="none" style="width:545px;height:780px;background:#FFFFFF;" version="1.1" viewBox="0 0 545 780" width="545px" zoomAndPan="magnify"><?plantuml 1.2026.5?><defs/><g><g class="title" data-source-line="1"><text fill="#000000" font-family="sans-serif" font-size="14" font-weight="700" lengthAdjust="spacing" textLength="257.2842" x="143.0835" y="33.5352">BackendTFM - Telemetry Data Flow</text></g><ellipse cx="332.9158" cy="62.4883" fill="#222222" rx="10" ry="10" style="stroke:#222222;stroke-width:1;"/><rect fill="#F1F1F1" height="48.2656" rx="12.5" ry="12.5" style="stroke:#181818;stroke-width:0.5;" width="169.6074" x="248.1121" y="92.4883"/><text fill="#000000" font-family="sans-serif" font-size="12" lengthAdjust="spacing" textLength="136.0547" x="264.8884" y="114.0898">Edge node or simulator</text><text fill="#000000" font-family="sans-serif" font-size="12" lengthAdjust="spacing" textLength="149.6074" x="258.1121" y="128.2227">creates telemetry payload</text><rect fill="#F1F1F1" height="48.2656" rx="12.5" ry="12.5" style="stroke:#181818;stroke-width:0.5;" width="233.5449" x="216.1433" y="160.7539"/><text fill="#000000" font-family="sans-serif" font-size="12" lengthAdjust="spacing" textLength="161.4258" x="252.2029" y="182.3555">Publish JSON to MQTT topic</text><text fill="#000000" font-family="sans-serif" font-size="12" lengthAdjust="spacing" textLength="213.5449" x="226.1433" y="196.4883">tfm/gateway/{gateway_id}/telemetry</text><rect fill="#F1F1F1" height="34.1328" rx="12.5" ry="12.5" style="stroke:#181818;stroke-width:0.5;" width="212.4277" x="226.7019" y="229.0195"/><text fill="#000000" font-family="sans-serif" font-size="12" lengthAdjust="spacing" textLength="192.4277" x="236.7019" y="250.6211">Backend receives MQTT message</text><polygon fill="#F1F1F1" points="284.3799,283.1523,381.4517,283.1523,393.4517,295.1523,381.4517,307.1523,284.3799,307.1523,272.3799,295.1523,284.3799,283.1523" style="stroke:#181818;stroke-width:0.5;stroke-linejoin:miter;stroke-miterlimit:10;"/><text fill="#000000" font-family="sans-serif" font-size="11" lengthAdjust="spacing" textLength="97.0718" x="284.3799" y="299.3096">Valid JSON object?</text><text fill="#000000" font-family="sans-serif" font-size="11" lengthAdjust="spacing" textLength="17.4829" x="254.897" y="292.832">yes</text><text fill="#000000" font-family="sans-serif" font-size="11" lengthAdjust="spacing" textLength="13.5835" x="393.4517" y="292.832">no</text><rect fill="#F1F1F1" height="34.1328" rx="12.5" ry="12.5" style="stroke:#181818;stroke-width:0.5;" width="184.0039" x="111.4351" y="317.1523"/><text fill="#000000" font-family="sans-serif" font-size="12" lengthAdjust="spacing" textLength="164.0039" x="121.4351" y="338.7539">Parse and validate telemetry</text><polygon fill="#F1F1F1" points="154.1411,385.418,252.7329,385.418,264.7329,397.418,252.7329,409.418,154.1411,409.418,142.1411,397.418,154.1411,385.418" style="stroke:#181818;stroke-width:0.5;stroke-linejoin:miter;stroke-miterlimit:10;"/><text fill="#000000" font-family="sans-serif" font-size="11" lengthAdjust="spacing" textLength="98.5918" x="154.1411" y="401.5752">Telemetry is valid?</text><text fill="#000000" font-family="sans-serif" font-size="11" lengthAdjust="spacing" textLength="17.4829" x="124.6582" y="395.0977">yes</text><text fill="#000000" font-family="sans-serif" font-size="11" lengthAdjust="spacing" textLength="13.5835" x="264.7329" y="395.0977">no</text><rect fill="#F1F1F1" height="48.2656" rx="12.5" ry="12.5" style="stroke:#181818;stroke-width:0.5;" width="188.2051" x="16" y="419.418"/><text fill="#000000" font-family="sans-serif" font-size="12" lengthAdjust="spacing" textLength="168.2051" x="26" y="441.0195">Normalize timestamp, fields,</text><text fill="#000000" font-family="sans-serif" font-size="12" lengthAdjust="spacing" textLength="50.1387" x="85.0332" y="455.1523">and tags</text><rect fill="#F1F1F1" height="48.2656" rx="12.5" ry="12.5" style="stroke:#181818;stroke-width:0.5;" width="143.5566" x="38.3242" y="487.6836"/><text fill="#000000" font-family="sans-serif" font-size="12" lengthAdjust="spacing" textLength="123.5566" x="48.3242" y="509.2852">Write node_telemetry</text><text fill="#000000" font-family="sans-serif" font-size="12" lengthAdjust="spacing" textLength="65.1387" x="77.5332" y="523.418">to InfluxDB</text><rect fill="#F1F1F1" height="48.2656" rx="12.5" ry="12.5" style="stroke:#181818;stroke-width:0.5;" width="145.1328" x="224.2051" y="419.418"/><text fill="#000000" font-family="sans-serif" font-size="12" lengthAdjust="spacing" textLength="125.1328" x="234.2051" y="441.0195">Write validation_error</text><text fill="#000000" font-family="sans-serif" font-size="12" lengthAdjust="spacing" textLength="106.1133" x="243.7148" y="455.1523">to backend events</text><polygon fill="#F1F1F1" points="203.437,541.9492,215.437,553.9492,203.437,565.9492,191.437,553.9492,203.437,541.9492" style="stroke:#181818;stroke-width:0.5;stroke-linejoin:miter;stroke-miterlimit:10;"/><rect fill="#F1F1F1" height="48.2656" rx="12.5" ry="12.5" style="stroke:#181818;stroke-width:0.5;" width="126.1133" x="399.3379" y="317.1523"/><text fill="#000000" font-family="sans-serif" font-size="12" lengthAdjust="spacing" textLength="102.4453" x="411.1719" y="338.7539">Write invalid_json</text><text fill="#000000" font-family="sans-serif" font-size="12" lengthAdjust="spacing" textLength="106.1133" x="409.3379" y="352.8867">to backend events</text><polygon fill="#F1F1F1" points="332.9158,571.9492,344.9158,583.9492,332.9158,595.9492,320.9158,583.9492,332.9158,571.9492" style="stroke:#181818;stroke-width:0.5;stroke-linejoin:miter;stroke-miterlimit:10;"/><rect fill="#F1F1F1" height="34.1328" rx="12.5" ry="12.5" style="stroke:#181818;stroke-width:0.5;" width="165.2656" x="250.283" y="615.9492"/><text fill="#000000" font-family="sans-serif" font-size="12" lengthAdjust="spacing" textLength="145.2656" x="260.283" y="637.5508">Grafana queries InfluxDB</text><rect fill="#F1F1F1" height="48.2656" rx="12.5" ry="12.5" style="stroke:#181818;stroke-width:0.5;" width="194.9609" x="235.4353" y="670.082"/><text fill="#000000" font-family="sans-serif" font-size="12" lengthAdjust="spacing" textLength="174.9609" x="245.4353" y="691.6836">Dashboard shows latest state,</text><text fill="#000000" font-family="sans-serif" font-size="12" lengthAdjust="spacing" textLength="163.5469" x="251.1423" y="705.8164">history, and backend events</text><ellipse cx="332.9158" cy="749.3477" fill="none" rx="11" ry="11" style="stroke:#222222;stroke-width:1;"/><ellipse cx="332.9158" cy="749.3477" fill="#222222" rx="6" ry="6" style="stroke:#222222;stroke-width:1;"/><line style="stroke:#181818;stroke-width:1;" x1="332.9158" x2="332.9158" y1="72.4883" y2="92.4883"/><polygon fill="#181818" points="328.9158,82.4883,332.9158,92.4883,336.9158,82.4883,332.9158,86.4883" style="stroke:#181818;stroke-width:1;stroke-linejoin:miter;stroke-miterlimit:10;"/><line style="stroke:#181818;stroke-width:1;" x1="332.9158" x2="332.9158" y1="140.7539" y2="160.7539"/><polygon fill="#181818" points="328.9158,150.7539,332.9158,160.7539,336.9158,150.7539,332.9158,154.7539" style="stroke:#181818;stroke-width:1;stroke-linejoin:miter;stroke-miterlimit:10;"/><line style="stroke:#181818;stroke-width:1;" x1="332.9158" x2="332.9158" y1="209.0195" y2="229.0195"/><polygon fill="#181818" points="328.9158,219.0195,332.9158,229.0195,336.9158,219.0195,332.9158,223.0195" style="stroke:#181818;stroke-width:1;stroke-linejoin:miter;stroke-miterlimit:10;"/><line style="stroke:#181818;stroke-width:1;" x1="110.1025" x2="110.1025" y1="467.6836" y2="487.6836"/><polygon fill="#181818" points="106.1025,477.6836,110.1025,487.6836,114.1025,477.6836,110.1025,481.6836" style="stroke:#181818;stroke-width:1;stroke-linejoin:miter;stroke-miterlimit:10;"/><line style="stroke:#181818;stroke-width:1;" x1="142.1411" x2="110.1025" y1="397.418" y2="397.418"/><line style="stroke:#181818;stroke-width:1;" x1="110.1025" x2="110.1025" y1="397.418" y2="419.418"/><polygon fill="#181818" points="106.1025,409.418,110.1025,419.418,114.1025,409.418,110.1025,413.418" style="stroke:#181818;stroke-width:1;stroke-linejoin:miter;stroke-miterlimit:10;"/><line style="stroke:#181818;stroke-width:1;" x1="264.7329" x2="296.7715" y1="397.418" y2="397.418"/><line style="stroke:#181818;stroke-width:1;" x1="296.7715" x2="296.7715" y1="397.418" y2="419.418"/><polygon fill="#181818" points="292.7715,409.418,296.7715,419.418,300.7715,409.418,296.7715,413.418" style="stroke:#181818;stroke-width:1;stroke-linejoin:miter;stroke-miterlimit:10;"/><line style="stroke:#181818;stroke-width:1;" x1="110.1025" x2="110.1025" y1="535.9492" y2="553.9492"/><line style="stroke:#181818;stroke-width:1;" x1="110.1025" x2="191.437" y1="553.9492" y2="553.9492"/><polygon fill="#181818" points="181.437,549.9492,191.437,553.9492,181.437,557.9492,185.437,553.9492" style="stroke:#181818;stroke-width:1;stroke-linejoin:miter;stroke-miterlimit:10;"/><line style="stroke:#181818;stroke-width:1;" x1="296.7715" x2="296.7715" y1="467.6836" y2="553.9492"/><line style="stroke:#181818;stroke-width:1;" x1="296.7715" x2="215.437" y1="553.9492" y2="553.9492"/><polygon fill="#181818" points="225.437,549.9492,215.437,553.9492,225.437,557.9492,221.437,553.9492" style="stroke:#181818;stroke-width:1;stroke-linejoin:miter;stroke-miterlimit:10;"/><line style="stroke:#181818;stroke-width:1;" x1="203.437" x2="203.437" y1="351.2852" y2="385.418"/><polygon fill="#181818" points="199.437,375.418,203.437,385.418,207.437,375.418,203.437,379.418" style="stroke:#181818;stroke-width:1;stroke-linejoin:miter;stroke-miterlimit:10;"/><line style="stroke:#181818;stroke-width:1;" x1="272.3799" x2="203.437" y1="295.1523" y2="295.1523"/><line style="stroke:#181818;stroke-width:1;" x1="203.437" x2="203.437" y1="295.1523" y2="317.1523"/><polygon fill="#181818" points="199.437,307.1523,203.437,317.1523,207.437,307.1523,203.437,311.1523" style="stroke:#181818;stroke-width:1;stroke-linejoin:miter;stroke-miterlimit:10;"/><line style="stroke:#181818;stroke-width:1;" x1="393.4517" x2="462.3945" y1="295.1523" y2="295.1523"/><line style="stroke:#181818;stroke-width:1;" x1="462.3945" x2="462.3945" y1="295.1523" y2="317.1523"/><polygon fill="#181818" points="458.3945,307.1523,462.3945,317.1523,466.3945,307.1523,462.3945,311.1523" style="stroke:#181818;stroke-width:1;stroke-linejoin:miter;stroke-miterlimit:10;"/><line style="stroke:#181818;stroke-width:1;" x1="203.437" x2="203.437" y1="565.9492" y2="583.9492"/><line style="stroke:#181818;stroke-width:1;" x1="203.437" x2="320.9158" y1="583.9492" y2="583.9492"/><polygon fill="#181818" points="310.9158,579.9492,320.9158,583.9492,310.9158,587.9492,314.9158,583.9492" style="stroke:#181818;stroke-width:1;stroke-linejoin:miter;stroke-miterlimit:10;"/><line style="stroke:#181818;stroke-width:1;" x1="462.3945" x2="462.3945" y1="365.418" y2="583.9492"/><line style="stroke:#181818;stroke-width:1;" x1="462.3945" x2="344.9158" y1="583.9492" y2="583.9492"/><polygon fill="#181818" points="354.9158,579.9492,344.9158,583.9492,354.9158,587.9492,350.9158,583.9492" style="stroke:#181818;stroke-width:1;stroke-linejoin:miter;stroke-miterlimit:10;"/><line style="stroke:#181818;stroke-width:1;" x1="332.9158" x2="332.9158" y1="263.1523" y2="283.1523"/><polygon fill="#181818" points="328.9158,273.1523,332.9158,283.1523,336.9158,273.1523,332.9158,277.1523" style="stroke:#181818;stroke-width:1;stroke-linejoin:miter;stroke-miterlimit:10;"/><line style="stroke:#181818;stroke-width:1;" x1="332.9158" x2="332.9158" y1="595.9492" y2="615.9492"/><polygon fill="#181818" points="328.9158,605.9492,332.9158,615.9492,336.9158,605.9492,332.9158,609.9492" style="stroke:#181818;stroke-width:1;stroke-linejoin:miter;stroke-miterlimit:10;"/><line style="stroke:#181818;stroke-width:1;" x1="332.9158" x2="332.9158" y1="650.082" y2="670.082"/><polygon fill="#181818" points="328.9158,660.082,332.9158,670.082,336.9158,660.082,332.9158,664.082" style="stroke:#181818;stroke-width:1;stroke-linejoin:miter;stroke-miterlimit:10;"/><line style="stroke:#181818;stroke-width:1;" x1="332.9158" x2="332.9158" y1="718.3477" y2="738.3477"/><polygon fill="#181818" points="328.9158,728.3477,332.9158,738.3477,336.9158,728.3477,332.9158,732.3477" style="stroke:#181818;stroke-width:1;stroke-linejoin:miter;stroke-miterlimit:10;"/><?plantuml-src RP9FQ-D03CNlyobqJ21BxiwXR4bRTg5_bZNTIo0e7jbMEvxnpiX9tTBlNZasQIYzs1v6x_Ua9mkB8xZ4ufcypQzluGVavAWXYJsiKH2kNJWOavxPjnYnWLIZ3GVs5PJe4ftTM2gnSvBJY_nqNFc6l42X3ueA48nYiYjR4VXW2KA4n4tdK4BS-28I2YMGatcBlGjeLoPxw7QEKms__zxVWGIu_PFd-cwvs7WfcsMboWFsoxVfOylsVNa2AM0Q3o8Ln7jrEH8QIWahMXd39SmUqR4TBSBkYGgvc8FKv67MKveRWEm1Oo90vUo7MlM2CnE0WVAP7QUnx2j6GNSXDdhrgdhM9WIRTW4baxDfiV63WM2LLcFnlyWo9hOzkUdO0NxvqdKlwykXZdGHCFDXVgwPkkJWjnJZ4BAgTbCKjDUz73tqnAKv9qnwzaV2zYa5_wrsL9hi9cA97k5_Hv4rtS_EiZMcUXSmMlrjmY616vOie3CBwQmr9zr-lpYc-XMlLwtv0000?></g></svg>